Coordinates
version=1
nRows=10
nColumns=22
inDegrees=yes

Units are S.I. units (second, meters, Newtons, ...)
If the header above contains a line with 'inDegrees', this indicates whether rotational values are in degrees (yes) or radians (no).

endheader
time	pelvis_tilt	pelvis_list	pelvis_rotation	pelvis_tx	pelvis_ty	pelvis_tz	hip_flexion_r	hip_adduction_r	hip_rotation_r	knee_angle_r	ankle_angle_r	subtalar_angle_r	hip_flexion_l	hip_adduction_l	hip_rotation_l	knee_angle_l	ankle_angle_l	subtalar_angle_l	lumbar_extension	lumbar_bending	lumbar_rotation
      1.69000000	     -3.86749075	      3.75147683	   -232.31684775	     -0.71138042	      0.90714097	      0.70607480	    -19.84158599	      9.30616289	     14.92363358	    -24.70734850	      6.94000134	      0.49680239	     24.61955938	     -1.26985274	      1.23292142	    -29.21589150	      8.85555711	     -5.51955333	    -11.80760417	      2.15280397	     -4.77980761
      1.70000000	     -3.96118323	      3.66970682	   -232.99240113	     -0.71898298	      0.90771710	      0.69616660	    -19.32248462	      8.96986612	     14.46103580	    -26.69942901	      4.39338130	      2.46587282	     24.46580398	     -1.18664755	      1.23966355	    -30.62243649	      9.44138208	     -6.09148650	    -11.69159225	      1.81292218	     -4.78449232
      1.71000000	     -4.13521505	      3.61000078	   -233.71522745	     -0.72632980	      0.90859204	      0.68624312	    -18.66984956	      8.56028265	     13.92907528	    -28.91633170	      1.66457177	      4.42643191	     24.09725224	     -1.11322328	      1.03231831	    -31.78966462	     10.18619887	     -6.49617035	    -11.66428586	      1.41004547	     -4.80475567
      1.72000000	     -4.36628388	      3.56367314	   -234.47487423	     -0.73338932	      0.90969409	      0.67641350	    -17.84747015	      8.08807634	     13.33091594	    -31.35594648	     -1.11604396	      6.21149920	     23.54270741	     -1.05307299	      0.61453240	    -32.70379211	     11.03213504	     -6.78612385	    -11.71076029	      0.96734191	     -4.85961857
      1.73000000	     -4.63889573	      3.50959823	   -235.27301432	     -0.74014113	      0.91095197	      0.66675649	    -16.81547623	      7.54597267	     12.67486570	    -34.01773563	     -3.76937829	      7.68594835	     22.83007897	     -0.99680384	     -0.01272994	    -33.34585053	     11.93095555	     -7.00091585	    -11.80658591	      0.48969256	     -4.96157495
      1.74000000	     -4.92338450	      3.43750669	   -236.10215966	     -0.74657732	      0.91228956	      0.65736229	    -15.54628517	      6.95453446	     11.99062909	    -36.88003379	     -6.15139683	      8.79764381	     22.01093523	     -0.94529665	     -0.81271511	    -33.73708858	     12.82839970	     -7.18302514	    -11.92832312	      0.00724118	     -5.11110959
      1.75000000	     -5.19303806	      3.34180895	   -236.95831157	     -0.75270444	      0.91365459	      0.64826947	    -14.03362221	      6.34028786	     11.31822283	    -39.89641768	     -8.13003883	      9.58225214	     21.12591886	     -0.90061730	     -1.74189436	    -33.90172074	     13.69673398	     -7.35522959	    -12.05380495	     -0.45287998	     -5.30747588
      1.76000000	     -5.42982911	      3.22798404	   -237.83585027	     -0.75853928	      0.91502434	      0.63948429	    -12.30204559	      5.73824870	     10.70628283	    -42.99634259	     -9.62085481	     10.12300034	     20.20423252	     -0.86531972	     -2.74988099	    -33.87710310	     14.51960294	     -7.52091403	    -12.17401613	     -0.86590715	     -5.54527897
      1.77000000	     -5.63456623	      3.12231781	   -238.73881317	     -0.76408904	      0.91644747	      0.63096603	    -10.41627662	      5.17656018	     10.19104312	    -46.08949383	    -10.59144358	     10.43632164	     19.23401970	     -0.84651424	     -3.80759884	    -33.68861468	     15.23207570	     -7.61675570	    -12.31031639	     -1.21766065	     -5.79458068
      1.78000000	     -5.74544729	      2.98260671	   -239.61831845	     -0.76943591	      0.91778714	      0.62270497	     -8.34307345	      4.72658605	      9.77179395	    -49.10152648	    -10.93916181	     10.75045453	     18.33713854	     -0.85219042	     -4.82162064	    -33.41957978	     15.96636152	     -7.85956752	    -12.36774717	     -1.46495350	     -6.13285006
